<?xml version="1.0" encoding="utf-8"?>
<!DOCTYPE svg PUBLIC "-//W3C//DTD SVG 1.1//EN" "http://www.w3.org/Graphics/SVG/1.1/DTD/svg11.dtd">
<svg version="1.1" id="logo" xmlns="http://www.w3.org/2000/svg" xmlns:xlink="http://www.w3.org/1999/xlink" x="0px" y="0px"
	 viewBox="0 0 213 90.1" enable-background="new 0 0 213 90.1" xml:space="preserve">
<g id="circle">
	<path id="_x34_" fill="#46C8F0" d="M132.5,5.2l0.3,0.3c7,7,7,18.2,0,25.2L94.4,69c14.1-14.1,14.1-36.9,0-50.9l12.9-12.9
		C114.3-1.7,125.5-1.7,132.5,5.2z"/>
	<path id="_x33_" fill="#288CE6" d="M94.4,18.1c14.1,14.1,14.1,36.9,0,50.9S57.6,83,43.5,69L94.4,18.1z"/>
	<path id="_x32_" fill="#FF3C5A" d="M94.4,18.1L43.5,69c-14.1-14.1-14.1-36.9,0-50.9S80.4,4,94.4,18.1z"/>
	<path id="_x31_" fill="#FFA000" d="M43.5,18.1c-14.1,14.1-14.1,36.9,0,50.9L30.7,81.8c-7,7-18.2,7-25.2,0l-0.3-0.3
		c-7-7-7-18.2,0-25.2L43.5,18.1z"/>
</g>
<g id="text">
	<path id="a_1_" d="M211.6,74.7c0.1-0.1,0.3-0.1,0.5-0.1c0.2,0.1,0.5,0.2,0.6,0.3c0.2,0.2,0.2,0.4,0.1,0.6c-0.6,1-1.2,2-2,3.2
		c-0.7,1.2-1.5,2.3-2.4,3.3c-0.8,1-1.7,1.7-2.5,2.1c-0.7,0.3-1.4,0.2-2-0.2c-0.6-0.4-1-0.9-1.1-1.5c0-0.4,0-0.8,0.1-1.4
		s0.3-1.1,0.4-1.7c-0.4,0.4-0.8,0.9-1.2,1.5c-0.8,1.2-1.8,2.3-2.9,3.4c-0.3,0.2-0.7,0.3-1.3,0.1s-1.1-0.4-1.5-0.7
		c-0.5-0.4-0.7-0.7-0.7-1.2c0.2-1.7,0.8-3.5,1.8-5.3c1-1.8,2.1-3.3,3.3-4.3c0.7-0.5,1.3-0.7,1.8-0.5c0.5,0.2,1.1,0.4,1.7,0.8
		c0.2,0.1,0.4,0.3,0.6,0.4c0.3-0.3,0.6-0.6,0.8-1c0.2-0.2,0.4-0.5,0.6-0.7c0.3-0.2,0.6-0.3,1.1-0.1c0.5,0.1,0.8,0.4,1.2,0.7
		s0.4,0.7,0.2,1c-1.5,2.5-2.4,4.5-2.8,5.8c-0.4,1.4-0.4,2-0.1,2C207.2,81.4,209,79.1,211.6,74.7z M203.7,75.9
		c0.1-0.1,0.1-0.3,0.1-0.5c0-0.2,0-0.4-0.1-0.6c-0.1-0.2-0.2-0.3-0.3-0.3c-0.2,0-0.4,0.1-0.6,0.3c-1,1.1-1.8,2.3-2.5,3.6
		c-0.7,1.4-1,2.3-1.1,2.9c0.5-0.5,1.3-1.3,2.2-2.4C202.4,77.8,203.2,76.8,203.7,75.9z"/>
	<path id="h" d="M199.2,75.2c0.1-0.2,0.3-0.3,0.5-0.2c0.2,0,0.4,0.2,0.6,0.4s0.2,0.4,0.2,0.6c-0.7,1.7-1.7,3.3-2.8,4.8
		c-1.1,1.5-2.1,2.5-3,3c-0.4,0.2-0.8,0.2-1.4,0.1c-0.5-0.1-1-0.3-1.4-0.5c-0.4-0.3-0.7-0.6-0.8-0.9c-0.1-0.7,0-1.6,0.3-2.7
		c0.3-1.1,0.6-2,0.9-2.6c0.1-0.2,0.1-0.3,0.1-0.4c-1,0.9-2,2.2-3.2,4c-1.2,1.8-2.1,3.3-2.6,4.4c-0.2,0.3-0.5,0.4-0.9,0.3
		c-0.5-0.1-0.9-0.2-1.3-0.4c-0.4-0.2-0.6-0.5-0.5-0.8c0.4-1.4,1.1-3.5,2.2-6.2s2.3-5.4,3.6-8s2.5-4.5,3.6-5.5
		c0.4-0.3,0.9-0.4,1.4-0.3s1,0.4,1.3,0.8c0.3,0.4,0.4,0.7,0.2,1c-0.4,0.2-1,0.9-2,2.1s-1.9,2.8-2.9,4.6c-1,1.9-1.9,3.9-2.7,6
		c0.7-1.1,1.5-2.1,2.4-3.2c0.9-1.1,1.7-1.9,2.5-2.4c0.4-0.2,0.9-0.3,1.4-0.1c0.5,0.1,0.9,0.4,1.2,0.8c0.3,0.4,0.4,0.7,0.3,1.1
		c-0.2,0.3-0.3,0.7-0.6,1.2c-0.5,0.9-0.9,1.9-1.3,3c-0.4,1.1-0.7,2-0.7,2.7c1-0.5,2-1.4,2.9-2.7C197.5,78,198.4,76.7,199.2,75.2z"/>
	<path id="s" d="M186.5,75.1c0.3,0,0.7,0.1,1,0.2c0.4,0.2,0.6,0.4,0.8,0.5c-0.1,0.1-0.1,0.1-0.1,0.1c0,0-0.1,0-0.1,0s-0.1,0-0.1,0
		c0,0-0.1,0-0.2,0c-0.1,0-0.2,0-0.3,0c-0.5,0.1-1.1,0.5-2,1c-0.9,0.5-1.8,1.1-2.6,1.7c-0.8,0.6-1.4,1-1.7,1.3
		c0.1,0.1,0.1,0.2,0.2,0.3c0.2,0.2,0.3,0.4,0.4,0.7c0.4,0.8,0.5,1.6,0.3,2.3c-0.2,0.8-0.6,1.5-1.2,2.2c-0.6,0.7-1.3,1.2-2.1,1.7
		c-0.8,0.4-1.8,0.6-2.7,0.6c-1-0.1-1.7-0.4-2.2-0.9c-0.5-0.6-0.5-1.4,0.1-2.5c0.5-0.8,1.1-1.6,1.9-2.3c0.8-0.7,1.6-1.4,2.4-2
		c-0.2-0.2-0.3-0.4-0.4-0.6c-0.3-0.4-0.7-0.9-0.9-1.3c-0.3-0.4-0.5-0.9-0.6-1.4c-0.2-1.1-0.1-2.2,0.4-3.3c0.5-1.1,1.2-1.9,2.2-2.6
		c0.3-0.2,0.7-0.3,1.1-0.2c0.4,0.1,0.9,0.2,1.3,0.4s0.7,0.4,0.9,0.5c0.6-0.9,1.1-1.6,1.5-2.1c0.4-0.5,0.8-0.8,1-1
		c0.2-0.1,0.4-0.1,0.6,0.1c0.2,0.2,0.5,0.4,0.7,0.7c0.2,0.3,0.4,0.6,0.5,0.8s0.1,0.5,0,0.6c-0.5,0.4-1,0.9-1.7,1.6s-1.2,1.5-1.6,2.3
		c-0.4,0.8-0.5,1.4-0.4,1.9c-0.3,0.1-0.6-0.1-1-0.3c-0.4-0.3-0.7-0.7-0.8-1.1c-0.1-0.4,0-0.8,0.1-1.3c0.2-0.5,0.3-0.8,0.4-1.1
		c-0.6,0-1,0.4-1.5,1.1c-0.4,0.7-0.6,1.6-0.7,2.5c-0.1,1,0.2,1.8,0.7,2.5c0.4-0.2,0.8-0.5,1.2-0.8c0.8-0.6,1.7-1.2,2.6-1.7
		C185.1,75.6,185.9,75.3,186.5,75.1z M176,85.8c0.4-0.1,0.9-0.3,1.5-0.8c0.6-0.5,1-1,1.4-1.7c0.4-0.6,0.5-1.1,0.3-1.5
		c-0.1,0.1-0.1,0.1-0.2,0.2c-0.6,0.6-1.2,1.2-1.8,1.8C176.7,84.3,176.3,85,176,85.8z"/>
	<path id="r" d="M175.7,78.2c0,0.2,0.1,0.4,0.2,0.4c0.1,0.1,0.2,0.1,0.3,0.2c0.1,0,0.1,0.1,0.2,0.1c0,0,0,0.1,0,0.2
		c-0.1,0.2-0.4,0.3-0.9,0.3s-1-0.1-1.5-0.3c-0.5-0.2-0.8-0.4-0.9-0.7c-0.1-0.5-0.2-1.1-0.1-1.7c0-0.3,0-0.5,0-0.8
		c-1.1,1.2-2.1,2.6-2.9,4.1s-1.5,3.2-2,5.1c-0.1,0.3-0.4,0.4-0.8,0.4c-0.4-0.1-0.8-0.2-1.2-0.5c-0.4-0.3-0.6-0.6-0.5-0.9
		c0.4-2.4,1.1-4.9,2.1-7.4s2-4.8,3.1-6.6c0.1-0.2,0.3-0.3,0.5-0.3c0.2,0,0.4,0,0.6,0c1,0.3,1.4,0.8,1.1,1.5
		c-0.2,0.4-0.4,0.8-0.6,1.2c-0.4,0.9-0.9,1.8-1.3,2.9c0,0,0.1-0.1,0.3-0.4c0.2-0.3,0.4-0.6,0.6-0.9c0.2-0.3,0.4-0.7,0.6-0.9
		c0.2-0.3,0.3-0.5,0.4-0.5c0.2-0.3,0.4-0.4,0.5-0.5s0.4,0,0.7,0.1c0.2,0.1,0.5,0.2,0.7,0.2c0.5,0.2,0.8,0.3,1.1,0.4
		c0.2,0.1,0.3,0.3,0.3,0.6s0,0.7-0.1,1.2c0,0.2,0,0.4-0.1,0.6C175.6,76.3,175.6,77.2,175.7,78.2z"/>
	<path id="i_2_" d="M168.6,75.6c0.1-0.2,0.3-0.3,0.5-0.2c0.2,0,0.4,0.1,0.5,0.2s0.2,0.3,0.1,0.4c-0.3,0.7-0.8,1.6-1.5,2.7
		c-0.7,1.1-1.4,2.1-2.2,3.1c-0.8,1-1.5,1.6-2.1,1.9c-0.4,0.2-0.8,0.2-1.3,0.1c-0.5-0.1-0.9-0.3-1.3-0.6c-0.4-0.3-0.5-0.7-0.5-1.2
		c0.1-1,0.4-2.3,0.9-4c0.6-1.7,1.2-3.2,1.9-4.4c0.2-0.2,0.5-0.3,1-0.2s0.9,0.2,1.3,0.5c0.4,0.3,0.5,0.5,0.4,0.9
		c-1,1.9-1.7,3.4-2,4.6s-0.5,1.8-0.4,2.1c0.2,0.4,0.7,0.1,1.6-1S167.4,77.7,168.6,75.6z M166.6,72.1c-0.2,0.2-0.4,0.4-0.8,0.3
		c-0.4,0-0.7-0.1-1-0.3c-0.3-0.2-0.4-0.4-0.4-0.6c0.1-0.7,0.3-1.3,0.5-1.9c0.2-0.6,0.4-1.1,0.6-1.3c0.2-0.3,0.6-0.4,1-0.3
		c0.5,0.1,0.9,0.2,1.3,0.5s0.5,0.5,0.3,0.9c-0.1,0.2-0.2,0.4-0.3,0.6c-0.2,0.4-0.4,0.7-0.6,1.1C167,71.5,166.8,71.9,166.6,72.1z"/>
	<path id="k_1_" d="M146.6,72.1c-0.1,0.4,0,0.9,0.2,1.5s0.4,1.1,0.7,1.7c0.3,0.5,0.5,0.9,0.7,1.1c0.2-0.3,0.6-1,1-2.1
		c0.5-1.1,1-2.3,1.5-3.7c0.5-1.3,0.9-2.5,1.2-3.8c0.3-1.2,0.5-2.3,0.6-3.2s-0.1-1.5-0.5-1.7c-0.7-0.4-1.6-0.2-2.7,0.5
		c-1.1,0.7-2.1,1.7-3.2,3.1s-2.1,2.9-3,4.5c-0.9,1.6-1.6,3.2-2,4.7c-0.4,1.5-0.5,2.8-0.2,3.7s1.1,1.5,2.4,1.5
		c-0.8,0.4-1.5,0.6-2.3,0.5c-0.8,0-1.5-0.3-2.1-0.8c-0.4-0.4-0.8-1-0.9-1.7c-0.1-0.5-0.2-1-0.1-1.6c0-0.8,0.2-1.8,0.6-3
		c0.5-1.5,1.2-3,2.1-4.7c0.9-1.7,2-3.2,3.2-4.6c1.3-1.4,2.6-2.5,4.1-3.1c1.5-0.7,3.1-0.7,4.8-0.2c1.2,0.5,1.9,1.4,2.2,2.8
		c0.2,1.4,0.1,2.9-0.3,4.6c-0.4,1.7-0.9,3.3-1.6,4.9c-0.6,1.5-1.1,2.7-1.6,3.5c0.3-0.3,1-0.9,2.1-1.9c1.1-1,2.3-2.3,3.6-3.7
		c1.3-1.4,2.5-2.8,3.6-4.2s1.8-2.6,2.1-3.5s0.1-1.5-0.7-1.6c0.5-0.4,1.1-0.5,1.8-0.3s1.2,0.6,1.6,1.1c0.4,0.6,0.6,1.2,0.4,1.9
		c-0.5,1.5-1.6,3.2-3.4,5.1c-1.8,1.9-3.8,3.7-6,5.5s-4.1,3.3-5.7,4.4c0.6,0.7,1.6,1.6,3,2.7c1.4,1.1,2.9,2.1,4.4,3
		c1.5,0.9,2.7,1.5,3.7,1.7c0.5,0.1,1,0,1.5-0.2c0.6-0.2,0.9-0.5,1.1-0.9c0.2,0,0.2,0.3,0.1,0.8c-0.1,0.5-0.4,1.1-0.8,1.7
		c-0.4,0.6-0.9,1.1-1.6,1.5c-0.6,0.4-1.4,0.5-2.2,0.2c-1.3-0.5-2.7-1.2-4.2-2.2s-2.8-2.1-4-3.2c-1.2-1.1-2.2-2.1-2.9-2.8
		c-0.4,0.7-0.9,1.7-1.6,2.9c-0.7,1.2-1.3,2-1.9,2.5c-0.3,0.2-0.7,0.2-1.3,0c-0.6-0.1-1.2-0.4-1.6-0.7c-0.5-0.3-0.6-0.6-0.4-0.9
		c0.9-0.5,1.8-1.5,2.7-2.9c0.8-1.1,1.5-2.2,2-3.2c-0.2-0.3-0.5-0.8-0.8-1.3c-0.3-0.5-0.5-1.1-0.7-1.8c-0.2-0.7-0.2-1.4,0-2.1
		C145.5,73.6,145.9,72.9,146.6,72.1z"/>
	<path id="a" d="M128.5,74.7c0.1-0.1,0.3-0.1,0.5-0.1c0.2,0.1,0.5,0.2,0.6,0.3c0.2,0.2,0.2,0.4,0.1,0.6c-0.6,1-1.2,2-2,3.2
		c-0.7,1.2-1.5,2.3-2.4,3.3c-0.8,1-1.7,1.7-2.5,2.1c-0.7,0.3-1.4,0.2-2-0.2c-0.6-0.4-1-0.9-1.1-1.5c0-0.4,0-0.8,0.1-1.4
		s0.3-1.1,0.4-1.7c-0.4,0.4-0.8,0.9-1.2,1.5c-0.8,1.2-1.8,2.3-2.9,3.4c-0.3,0.2-0.7,0.3-1.3,0.1s-1.1-0.4-1.5-0.7
		c-0.5-0.4-0.7-0.7-0.7-1.2c0.2-1.7,0.8-3.5,1.8-5.3c1-1.8,2.1-3.3,3.3-4.3c0.7-0.5,1.3-0.7,1.8-0.5c0.5,0.2,1.1,0.4,1.7,0.8
		c0.2,0.1,0.4,0.3,0.6,0.4c0.3-0.3,0.6-0.6,0.8-1c0.2-0.2,0.4-0.5,0.6-0.7c0.3-0.2,0.6-0.3,1.1-0.1c0.5,0.1,0.8,0.4,1.2,0.7
		s0.4,0.7,0.2,1c-1.5,2.5-2.4,4.5-2.8,5.8c-0.4,1.4-0.4,2-0.1,2C124.1,81.4,125.8,79.1,128.5,74.7z M120.6,75.9
		c0.1-0.1,0.1-0.3,0.1-0.5c0-0.2,0-0.4-0.1-0.6c-0.1-0.2-0.2-0.3-0.3-0.3c-0.2,0-0.4,0.1-0.6,0.3c-1,1.1-1.8,2.3-2.5,3.6
		c-0.7,1.4-1,2.3-1.1,2.9c0.5-0.5,1.3-1.3,2.2-2.4C119.2,77.8,120,76.8,120.6,75.9z"/>
	<path id="t" d="M118.8,66.7c0.9,0.2,1.6,0.3,2.1,0.5c0.5,0.2,0.9,0.4,1.2,0.7c0.1,0.2,0.3,0.5,0.4,0.8c0.1,0.4,0.2,0.7,0.2,1
		s-0.1,0.5-0.3,0.5c-0.3-0.4-1-0.8-1.9-1c-1.5-0.3-2.6-0.5-3.3-0.4c-0.3,0.5-0.7,1-1,1.6c-1,1.7-1.9,3.6-2.7,5.6
		c-0.8,2-1.4,3.9-1.8,5.7c-0.4,1.8-0.5,3.3-0.4,4.5c0.1,1.2,0.6,1.8,1.5,1.9c-0.3,0.3-0.8,0.4-1.4,0.3c-0.6-0.1-1.2-0.4-1.8-1
		s-1-1.4-1.1-2.5c-0.2-1.7,0.3-4,1.2-6.9c1-2.9,2.1-5.7,3.5-8.3c0.1-0.2,0.2-0.4,0.3-0.6h0c-0.2,0-0.5,0.1-0.9,0.1
		c-0.4,0.1-0.8,0.2-1.1,0.3c-0.3,0.1-0.6,0.2-0.6,0.4c-0.1,0.2-0.2,0.2-0.4,0.2c-0.1-0.1-0.3-0.2-0.4-0.4s-0.2-0.4-0.3-0.6
		c-0.1-0.2-0.2-0.4-0.2-0.5c-0.1-0.2-0.1-0.5,0.1-0.6c0.1-0.2,0.3-0.3,0.5-0.4c0.6-0.3,1.3-0.5,2.1-0.6c0.8-0.1,1.5-0.2,2.1-0.2
		c0.1,0,0.3,0,0.5,0c0.7-1,1.4-1.9,2.1-2.7c0.2-0.2,0.6-0.2,0.9-0.1s0.7,0.3,1.1,0.6c0.4,0.3,0.6,0.6,0.6,0.9c0.1,0.3,0,0.5-0.1,0.6
		C119.2,66.2,119,66.5,118.8,66.7z"/>
	<path id="i_1_" d="M110.5,75.6c0.1-0.2,0.3-0.3,0.5-0.2c0.2,0,0.4,0.1,0.5,0.2s0.2,0.3,0.1,0.4c-0.3,0.7-0.8,1.6-1.5,2.7
		c-0.7,1.1-1.4,2.1-2.2,3.1c-0.8,1-1.5,1.6-2.1,1.9c-0.4,0.2-0.8,0.2-1.3,0.1c-0.5-0.1-0.9-0.3-1.3-0.6c-0.4-0.3-0.5-0.7-0.5-1.2
		c0.1-1,0.4-2.3,0.9-4c0.6-1.7,1.2-3.2,1.9-4.4c0.2-0.2,0.5-0.3,1-0.2s0.9,0.2,1.3,0.5c0.4,0.3,0.5,0.5,0.4,0.9
		c-1,1.9-1.7,3.4-2,4.6s-0.5,1.8-0.4,2.1c0.2,0.4,0.7,0.1,1.6-1S109.3,77.7,110.5,75.6z M108.4,72.1c-0.2,0.2-0.4,0.4-0.8,0.3
		c-0.4,0-0.7-0.1-1-0.3c-0.3-0.2-0.4-0.4-0.4-0.6c0.1-0.7,0.3-1.3,0.5-1.9c0.2-0.6,0.4-1.1,0.6-1.3c0.2-0.3,0.6-0.4,1-0.3
		c0.5,0.1,0.9,0.2,1.3,0.5s0.5,0.5,0.3,0.9c-0.1,0.2-0.2,0.4-0.3,0.6c-0.2,0.4-0.4,0.7-0.6,1.1C108.8,71.5,108.6,71.9,108.4,72.1z"
		/>
	<path id="k" d="M104.5,65.6c-0.7,0.3-1.7,1.4-2.8,3.1c-1.2,1.7-2.3,3.4-3.3,5.2c-1,1.8-1.6,3-1.7,3.6c0.7-0.9,1.5-1.9,2.4-2.9
		s1.8-1.9,2.6-2.6c0.2-0.1,0.3-0.2,0.5-0.3c0.2-0.1,0.4-0.1,0.6,0c0.6,0.3,1.1,0.6,1.3,0.8c0.3,0.3,0.2,0.7,0,1.1
		c-0.6,0.9-1.5,2-2.7,3.4c-1.2,1.3-2.1,2.3-2.8,3c0.7,0,1.4,0,2,0.1s1,0.3,1.3,0.5c0.1,0.1,0.1,0.3,0,0.6c-0.1,0.3-0.2,0.6-0.4,0.9
		c-0.2,0.3-0.4,0.6-0.6,0.7c-0.2,0.2-0.4,0.2-0.6,0.1c-0.6-0.5-1.5-0.7-2.6-0.8c-1.1-0.1-2.1,0.2-3,0.7c-0.3,0.9-0.5,1.6-0.6,2.1
		c-0.1,0.3-0.4,0.4-0.8,0.4c-0.5,0-0.9-0.2-1.3-0.4c-0.4-0.2-0.6-0.5-0.6-0.8c0.4-1.4,1.1-3.4,2.3-6.1s2.4-5.4,3.8-8
		c1.4-2.6,2.7-4.6,3.9-5.8c0.4-0.3,0.7-0.5,1-0.4c0.3,0.1,0.7,0.2,1.2,0.6c0.1,0.1,0.2,0.1,0.3,0.2c0.2,0.1,0.4,0.3,0.6,0.4
		S104.6,65.4,104.5,65.6z M100.2,74.7c-0.9,0.8-1.8,1.7-2.7,2.8c-0.9,1.1-1.5,2-1.9,2.8c0.9-0.9,1.8-1.9,2.7-3S99.9,75.2,100.2,74.7
		z"/>
	<path id="i" d="M95,75.6c0.1-0.2,0.3-0.3,0.5-0.2c0.2,0,0.4,0.1,0.5,0.2c0.1,0.1,0.2,0.3,0.1,0.4c-0.3,0.7-0.8,1.6-1.5,2.7
		s-1.4,2.1-2.2,3.1c-0.8,1-1.5,1.6-2.1,1.9c-0.4,0.2-0.8,0.2-1.3,0.1c-0.5-0.1-0.9-0.3-1.3-0.6s-0.5-0.7-0.5-1.2
		c0.1-1,0.4-2.3,0.9-4c0.6-1.7,1.2-3.2,1.9-4.4c0.2-0.2,0.5-0.3,1-0.2c0.5,0.1,0.9,0.2,1.3,0.5s0.5,0.5,0.4,0.9
		c-1,1.9-1.7,3.4-2,4.6s-0.5,1.8-0.4,2.1c0.2,0.4,0.7,0.1,1.6-1C92.8,79.3,93.8,77.7,95,75.6z M93,72.1c-0.2,0.2-0.4,0.4-0.8,0.3
		c-0.4,0-0.7-0.1-1-0.3c-0.3-0.2-0.4-0.4-0.4-0.6c0.1-0.7,0.3-1.3,0.5-1.9c0.2-0.6,0.4-1.1,0.6-1.3c0.2-0.3,0.6-0.4,1-0.3
		s0.9,0.2,1.3,0.5s0.5,0.5,0.3,0.9c-0.1,0.2-0.2,0.4-0.3,0.6c-0.2,0.4-0.4,0.7-0.6,1.1S93.1,71.9,93,72.1z"/>
	<path id="n" d="M86.2,88.4c-0.8,0.6-1.6,0.9-2.5,0.8c-0.9-0.1-1.6-0.5-2.3-1.3s-0.9-1.9-0.9-3.3c0.1-1.4,0.3-3,0.8-4.7
		c0.5-1.7,1-3.4,1.6-5.2c0.7-1.9,1.2-3.7,1.6-5.4c0.4-1.8,0.4-2.8,0.1-3.2s-0.9-0.2-1.7,0.5c-0.8,0.7-1.6,1.8-2.6,3.3
		c-1.1,1.8-2.3,4-3.5,6.7c-1.2,2.7-2.5,5.9-3.7,9.8c-0.1,0.3-0.4,0.4-0.8,0.4c-0.4,0-0.9-0.1-1.3-0.3c-0.5-0.2-0.8-0.5-1.1-0.9
		c-0.3-0.4-0.3-0.8-0.1-1.2c0.3-0.5,0.7-1.5,1.3-3c0.6-1.5,1.3-3.3,2-5.2s1.3-3.9,1.8-5.8c0.5-1.9,0.7-3.4,0.7-4.7
		c0-1.2-0.4-1.9-1.2-1.9c-0.8,0.1-1.7,0.6-2.6,1.6c-0.9,1-1.8,2.3-2.6,3.9c-0.8,1.5-1.4,3.1-1.8,4.6c-0.4,1.6-0.5,2.9-0.2,4
		c0.2,0.6,0.5,0.9,1,1.1c0.5,0.2,1,0.1,1.6-0.3c-0.2,0.5-0.6,0.9-1.3,1.1c-0.7,0.2-1.4,0.3-2.2,0.1c-0.8-0.2-1.4-0.7-1.9-1.4
		c-0.5-0.8-0.6-1.9-0.3-3.3c0.4-2,1.1-4,2.1-6s2.3-3.7,3.7-5.1c1.5-1.4,3-2.1,4.7-2.1c1.4,0,2.3,0.5,2.8,1.5s0.6,2,0.5,3.3
		c-0.1,1.3-0.3,2.5-0.6,3.6c-0.3,1.1-0.6,2-0.8,2.4c0,0,0-0.1,0-0.1c0.4-0.8,0.9-1.8,1.5-3.1c0.7-1.3,1.5-2.5,2.4-3.8
		c0.9-1.2,1.9-2.2,3-2.8c1.1-0.6,2.2-0.7,3.3-0.2c0.8,0.3,1.3,1.3,1.4,2.8c0.1,1.5-0.3,3.7-1.2,6.6c-0.1,0.2-0.1,0.5-0.2,0.7
		c-0.6,1.9-1.2,3.8-1.7,5.6s-0.9,3.6-1.2,5.1s-0.2,2.7,0,3.6C84.6,88.2,85.2,88.6,86.2,88.4z"/>
</g>
</svg>
